<?xml version="1.0" encoding="UTF-8" standalone="no"?>
<svg
   width="180mm"
   height="60mm"
   viewBox="40 -30 180 60"
   version="1.1"
   id="svg4016"
   sodipodi:docname="scadhako.svg"
   inkscape:version="1.2.1 (9c6d41e410, 2022-07-14)"
   xmlns:inkscape="http://www.inkscape.org/namespaces/inkscape"
   xmlns:sodipodi="http://sodipodi.sourceforge.net/DTD/sodipodi-0.dtd"
   xmlns="http://www.w3.org/2000/svg"
   xmlns:svg="http://www.w3.org/2000/svg">
  <defs
     id="defs4020" />
  <sodipodi:namedview
     id="namedview4018"
     pagecolor="#ffffff"
     bordercolor="#666666"
     borderopacity="1.0"
     inkscape:showpageshadow="2"
     inkscape:pageopacity="0.0"
     inkscape:pagecheckerboard="0"
     inkscape:deskcolor="#d1d1d1"
     inkscape:document-units="mm"
     showgrid="false"
     inkscape:zoom="1.8961806"
     inkscape:cx="340.42117"
     inkscape:cy="113.38583"
     inkscape:window-width="1920"
     inkscape:window-height="1057"
     inkscape:window-x="-8"
     inkscape:window-y="1"
     inkscape:window-maximized="1"
     inkscape:current-layer="svg4016" />
  <title
     id="title4012">OpenSCAD Model</title>
  <path
     d=" M 40,-0 L 40.6556,6.23735 L 42.5936,12.2021 L 45.7295,17.6336 L 49.9261,22.2943 L 55,25.9808  L 60.7295,28.5317 L 66.8641,29.8357 L 70,29.8357 L 70,30 L 190,30 L 190,29.8357  L 193.136,29.8357 L 199.271,28.5317 L 205,25.9808 L 210.074,22.2943 L 214.271,17.6336 L 217.406,12.2021  L 219.344,6.23735 L 220,-0 L 219.344,-6.23735 L 217.406,-12.2021 L 214.271,-17.6336 L 210.074,-22.2943  L 205,-25.9808 L 199.271,-28.5317 L 193.136,-29.8357 L 190,-29.8357 L 190,-30 L 70,-30  L 70,-29.8357 L 66.8641,-29.8357 L 60.7295,-28.5317 L 55,-25.9808 L 49.9261,-22.2943 L 45.7295,-17.6336  L 42.5936,-12.2021 L 40.6556,-6.23735 z M 45,-0 L 45.5463,-5.19779 L 47.1614,-10.1684 L 49.7746,-14.6946 L 53.2717,-18.5786 L 57.5,-21.6506  L 62.2746,-23.7764 L 67.3868,-24.863 L 70,-24.863 L 70,-25 L 190,-25 L 190,-24.863  L 192.613,-24.863 L 197.725,-23.7764 L 202.5,-21.6506 L 206.728,-18.5786 L 210.225,-14.6946 L 212.839,-10.1684  L 214.454,-5.19779 L 215,-0 L 214.454,5.19779 L 212.839,10.1684 L 210.225,14.6946 L 206.728,18.5786  L 202.5,21.6506 L 197.725,23.7764 L 192.613,24.863 L 190,24.863 L 190,25 L 70,25  L 70,24.863 L 67.3868,24.863 L 62.2746,23.7764 L 57.5,21.6506 L 53.2717,18.5786 L 49.7746,14.6946  L 47.1614,10.1684 L 45.5463,5.19779 z "
     stroke="black"
     fill="lightgray"
     stroke-width="0.5"
     id="path4014"
     style="fill-opacity:1;fill:#1fd3d3;stroke-width:1;stroke-dasharray:none" />
</svg>
