<?xml version="1.0" encoding="UTF-8" standalone="no"?>
<svg
   width="300mm"
   height="300mm"
   viewBox="40 -30 300 300"
   version="1.1"
   id="svg4016"
   sodipodi:docname="scadhako.svg"
   inkscape:version="1.2.1 (9c6d41e410, 2022-07-14)"
   xmlns:inkscape="http://www.inkscape.org/namespaces/inkscape"
   xmlns:sodipodi="http://sodipodi.sourceforge.net/DTD/sodipodi-0.dtd"
   xmlns="http://www.w3.org/2000/svg"
   xmlns:svg="http://www.w3.org/2000/svg"
   xmlns:rdf="http://www.w3.org/1999/02/22-rdf-syntax-ns#"
   xmlns:cc="http://creativecommons.org/ns#"
   xmlns:dc="http://purl.org/dc/elements/1.1/">
  <defs
     id="defs4020" />
  <sodipodi:namedview
     id="namedview4018"
     pagecolor="#ffffff"
     bordercolor="#666666"
     borderopacity="1.0"
     inkscape:showpageshadow="2"
     inkscape:pageopacity="0.0"
     inkscape:pagecheckerboard="0"
     inkscape:deskcolor="#d1d1d1"
     inkscape:document-units="mm"
     showgrid="false"
     inkscape:zoom="1.8961806"
     inkscape:cx="340.42117"
     inkscape:cy="113.38583"
     inkscape:window-width="1920"
     inkscape:window-height="1057"
     inkscape:window-x="-8"
     inkscape:window-y="1"
     inkscape:window-maximized="1"
     inkscape:current-layer="svg4016" />
  <title
     id="title4012">OpenSCAD Model</title>
  <path
     d="m 40,0 0.6556,6.23735 1.938,5.96475 3.1359,5.4315 4.1966,4.6607 5.0739,3.6865 5.7295,2.5509 6.1346,1.304 H 70 V 30 h 120 v -0.1643 h 3.136 l 6.135,-1.304 5.729,-2.5509 5.074,-3.6865 4.197,-4.6607 3.135,-5.4315 1.938,-5.96475 L 220,0 l -0.656,-6.23735 -1.938,-5.96475 -3.135,-5.4315 -4.197,-4.6607 -5.074,-3.6865 -5.729,-2.5509 -6.135,-1.304 H 190 V -30 H 70 v 0.1643 h -3.1359 l -6.1346,1.304 -5.7295,2.5509 -5.0739,3.6865 -4.1966,4.6607 -3.1359,5.4315 -1.938,5.96475 z m 5,0 0.5463,-5.19779 1.6151,-4.97061 2.6132,-4.5262 3.4971,-3.884 4.2283,-3.072 4.7746,-2.1258 5.1122,-1.0866 H 70 V -25 h 120 v 0.137 h 2.613 l 5.112,1.0866 4.775,2.1258 4.228,3.072 3.497,3.884 2.614,4.5262 1.615,4.97061 L 215,0 l -0.546,5.19779 -1.615,4.97061 -2.614,4.5262 -3.497,3.884 -4.228,3.072 -4.775,2.1258 -5.112,1.0866 H 190 V 25 H 70 V 24.863 H 67.3868 L 62.2746,23.7764 57.5,21.6506 53.2717,18.5786 49.7746,14.6946 47.1614,10.1684 45.5463,5.19779 Z"
     stroke="#000000"
     fill="lightgray"
     stroke-width="0.5"
     id="path4014"
     style="fill:#1fd3d3;fill-opacity:1;stroke-width:1;stroke-dasharray:none" />
  <metadata
     id="metadata27601">
    <rdf:RDF>
      <cc:Work
         rdf:about="">
        <dc:title>OpenSCAD Model</dc:title>
      </cc:Work>
    </rdf:RDF>
  </metadata>
</svg>
